<svg width="32" height="32" viewBox="0 0 32 32" xmlns="http://www.w3.org/2000/svg">
  <defs>
    <linearGradient id="gradient" x1="0%" y1="0%" x2="100%" y2="100%">
      <stop offset="0%" style="stop-color:#d4a574;stop-opacity:1" />
      <stop offset="100%" style="stop-color:#c19456;stop-opacity:1" />
    </linearGradient>
  </defs>
  
  <!-- Background circle -->
  <circle cx="16" cy="16" r="15" fill="url(#gradient)" stroke="none"/>
  
  <!-- Clean bold "S" letter -->
  <path d="M 20 8 L 12 8 C 9.8 8 8 9.8 8 12 C 8 14.2 9.8 16 12 16 L 20 16 C 20.5 16 21 16.5 21 17 C 21 17.5 20.5 18 20 18 L 12 18 L 12 22 L 20 22 C 22.2 22 24 20.2 24 18 C 24 15.8 22.2 14 20 14 L 12 14 C 11.5 14 11 13.5 11 13 C 11 12.5 11.5 12 12 12 L 20 12 L 20 8 Z" 
        fill="white" 
        stroke="none"/>
</svg>